<svg xmlns="http://www.w3.org/2000/svg" viewBox="0 0 1200 600" fill="none">
  <defs>
    <linearGradient id="bg2" x1="0%" y1="0%" x2="100%" y2="100%">
      <stop offset="0%" style="stop-color:#0f172a"/>
      <stop offset="100%" style="stop-color:#1e1b4b"/>
    </linearGradient>
    <linearGradient id="accent2" x1="0%" y1="0%" x2="100%" y2="100%">
      <stop offset="0%" style="stop-color:#ff922b"/>
      <stop offset="100%" style="stop-color:#ffa94d"/>
    </linearGradient>
  </defs>
  <rect width="1200" height="600" fill="url(#bg2)"/>
  <!-- Dots pattern -->
  <g opacity="0.04" fill="#fff">
    <circle cx="50" cy="50" r="2"/><circle cx="100" cy="50" r="2"/><circle cx="150" cy="50" r="2"/><circle cx="200" cy="50" r="2"/><circle cx="250" cy="50" r="2"/><circle cx="300" cy="50" r="2"/><circle cx="350" cy="50" r="2"/><circle cx="400" cy="50" r="2"/><circle cx="450" cy="50" r="2"/><circle cx="500" cy="50" r="2"/>
    <circle cx="50" cy="100" r="2"/><circle cx="100" cy="100" r="2"/><circle cx="150" cy="100" r="2"/><circle cx="200" cy="100" r="2"/><circle cx="250" cy="100" r="2"/><circle cx="300" cy="100" r="2"/><circle cx="350" cy="100" r="2"/><circle cx="400" cy="100" r="2"/><circle cx="450" cy="100" r="2"/><circle cx="500" cy="100" r="2"/>
    <circle cx="50" cy="150" r="2"/><circle cx="100" cy="150" r="2"/><circle cx="150" cy="150" r="2"/><circle cx="200" cy="150" r="2"/><circle cx="250" cy="150" r="2"/><circle cx="300" cy="150" r="2"/><circle cx="350" cy="150" r="2"/><circle cx="400" cy="150" r="2"/><circle cx="450" cy="150" r="2"/><circle cx="500" cy="150" r="2"/>
  </g>
  <!-- Mobile + Desktop mockup -->
  <rect x="200" y="60" width="500" height="480" rx="16" fill="#1e293b" stroke="#334155" stroke-width="2"/>
  <rect x="200" y="60" width="500" height="36" rx="16" fill="#334155"/>
  <circle cx="225" cy="78" r="5" fill="#ef4444"/><circle cx="242" cy="78" r="5" fill="#eab308"/><circle cx="259" cy="78" r="5" fill="#22c55e"/>
  <!-- E-commerce mockup -->
  <rect x="220" y="110" width="460" height="50" rx="8" fill="#334155"/>
  <rect x="235" y="125" width="80" height="20" rx="4" fill="#475569"/>
  <rect x="220" y="175" width="220" height="220" rx="8" fill="#334155"/>
  <rect x="455" y="175" width="220" height="220" rx="8" fill="#334155"/>
  <rect x="240" y="195" width="180" height="140" rx="4" fill="#475569"/>
  <rect x="475" y="195" width="180" height="140" rx="4" fill="#475569"/>
  <rect x="240" y="350" width="100" height="12" rx="3" fill="#64748b"/>
  <rect x="240" y="370" width="60" height="14" rx="3" fill="url(#accent2)"/>
  <rect x="475" y="350" width="100" height="12" rx="3" fill="#64748b"/>
  <rect x="475" y="370" width="60" height="14" rx="3" fill="url(#accent2)"/>
  <!-- Phone mockup -->
  <rect x="780" y="120" width="220" height="400" rx="24" fill="#1e293b" stroke="#334155" stroke-width="2"/>
  <rect x="795" y="145" width="190" height="350" rx="4" fill="#0f172a"/>
  <rect x="810" y="160" width="160" height="100" rx="4" fill="#334155"/>
  <rect x="810" y="275" width="160" height="14" rx="3" fill="#64748b"/>
  <rect x="810" y="300" width="120" height="14" rx="3" fill="#475569"/>
  <rect x="810" y="330" width="80" height="30" rx="6" fill="url(#accent2)"/>
  <!-- Glow -->
  <circle cx="450" cy="300" r="250" fill="#4c6ef5" opacity="0.04"/>
  <circle cx="850" cy="300" r="150" fill="#ff922b" opacity="0.05"/>
</svg>
